<svg width="1046" height="1030" viewBox="0 0 1046 1030" fill="none" xmlns="http://www.w3.org/2000/svg">
<path d="M863.965 351.758V292.804H669.53V249.571L585.923 212.234L552.869 245.641L589.811 263.327L531.481 277.083V0H477.039L438.152 84.5005L477.039 98.2564V351.758L618.977 318.351V351.758H863.965Z" fill="url(#paint0_linear_40_3128)"/>
<path d="M567.749 444.325V395.557H520.984H337.988V370.271L215.991 395.557V444.325H567.749Z" fill="url(#paint1_linear_40_3128)"/>
<path d="M304.985 285.908L352.472 238.421L399.958 285.908L352.472 333.394L304.985 285.908Z" fill="#0056DF"/>
<path d="M463.004 613.789L510.49 566.303L557.977 613.789L510.49 661.276L463.004 613.789Z" fill="#51B283"/>
<path d="M693.825 419.573L741.312 372.086L788.798 419.573L741.312 467.059L693.825 419.573Z" fill="#FBB520"/>
<path d="M599.316 419.573L646.803 372.086L694.289 419.573L646.803 467.059L599.316 419.573Z" fill="#EA1558"/>
<path d="M304.985 189.207L352.472 141.72L399.958 189.207L352.472 236.693L304.985 189.207Z" fill="#0056DF"/>
<path d="M463.004 517.086L510.49 469.599L557.977 517.086L510.49 564.572L463.004 517.086Z" fill="#51B283"/>
<path d="M947.59 747.512H974.274L1023.22 829.095H1024.58L1023.22 805.64V747.512H1046V869.207H1021.86L970.195 783.034H968.835L970.195 806.49V869.207H947.59V747.512Z" fill="#0056DF"/>
<path d="M865.452 871.926C856.387 871.926 847.945 870.283 840.127 866.997C832.422 863.711 825.737 859.235 820.071 853.57C814.406 847.791 809.93 841.049 806.644 833.344C803.471 825.525 801.885 817.197 801.885 808.359C801.885 799.521 803.471 791.249 806.644 783.544C809.93 775.726 814.406 768.984 820.071 763.318C825.737 757.539 832.422 753.007 840.127 749.721C847.945 746.435 856.387 744.792 865.452 744.792C874.517 744.792 882.901 746.435 890.606 749.721C898.425 753.007 905.167 757.539 910.832 763.318C916.498 768.984 920.917 775.726 924.09 783.544C927.376 791.249 929.019 799.521 929.019 808.359C929.019 817.197 927.376 825.525 924.09 833.344C920.917 841.049 916.498 847.791 910.832 853.57C905.167 859.235 898.425 863.711 890.606 866.997C882.901 870.283 874.517 871.926 865.452 871.926ZM865.452 850.17C871.117 850.17 876.386 849.15 881.258 847.111C886.244 845.071 890.55 842.239 894.176 838.613C897.915 834.987 900.804 830.624 902.844 825.525C904.997 820.313 906.073 814.591 906.073 808.359C906.073 802.127 904.997 796.461 902.844 791.362C900.804 786.15 897.915 781.731 894.176 778.105C890.55 774.479 886.244 771.646 881.258 769.607C876.386 767.567 871.117 766.548 865.452 766.548C859.786 766.548 854.461 767.567 849.475 769.607C844.603 771.646 840.297 774.479 836.558 778.105C832.932 781.731 830.042 786.15 827.889 791.362C825.85 796.461 824.83 802.127 824.83 808.359C824.83 814.591 825.85 820.313 827.889 825.525C830.042 830.624 832.932 834.987 836.558 838.613C840.297 842.239 844.603 845.071 849.475 847.111C854.461 849.15 859.786 850.17 865.452 850.17Z" fill="#0056DF"/>
<path d="M687.994 747.512H710.939V796.122H762.099V747.512H785.044V869.207H762.099V817.877H710.939V869.207H687.994V747.512Z" fill="#0056DF"/>
<path d="M614.736 869.207V769.267H580.743V747.512H671.674V769.267H637.681V869.207H614.736Z" fill="#0056DF"/>
<path d="M513.883 747.512H540.057L585.778 869.207H560.453L550.425 840.143H503.515L493.487 869.207H468.162L513.883 747.512ZM542.947 819.067L532.069 788.643L527.65 773.856H526.29L521.871 788.643L510.993 819.067H542.947Z" fill="#0056DF"/>
<path d="M364.667 747.512H387.612V799.691H388.972L433.503 747.512H461.207V748.871L417.186 799.181L465.796 867.847V869.207H437.752L401.549 817.367L387.612 833.514V869.207H364.667V747.512Z" fill="#0056DF"/>
<path d="M346.242 849.66C340.237 856.912 333.155 862.464 324.997 866.317C316.838 870.056 307.717 871.926 297.632 871.926C288.568 871.926 280.126 870.283 272.308 866.997C264.603 863.711 257.917 859.235 252.252 853.57C246.586 847.904 242.11 841.219 238.824 833.514C235.539 825.695 233.896 817.31 233.896 808.359C233.896 799.407 235.539 791.079 238.824 783.374C242.11 775.556 246.586 768.814 252.252 763.148C257.917 757.483 264.603 753.007 272.308 749.721C280.126 746.435 288.568 744.792 297.632 744.792C307.377 744.792 315.932 746.492 323.297 749.891C330.776 753.29 337.404 758.219 343.183 764.678L327.036 780.315C323.41 776.122 319.218 772.78 314.459 770.287C309.813 767.794 304.261 766.548 297.802 766.548C292.137 766.548 286.811 767.567 281.826 769.607C276.84 771.533 272.478 774.309 268.738 777.935C265.112 781.561 262.223 785.98 260.07 791.192C257.917 796.291 256.841 802.014 256.841 808.359C256.841 814.704 257.917 820.483 260.07 825.695C262.223 830.794 265.112 835.157 268.738 838.783C272.478 842.409 276.84 845.241 281.826 847.281C286.811 849.207 292.137 850.17 297.802 850.17C304.601 850.17 310.606 848.811 315.819 846.091C321.144 843.258 325.847 839.293 329.926 834.194L346.242 849.66Z" fill="#0056DF"/>
<path d="M157.017 747.512H183.192L228.913 869.207H203.588L193.56 840.143H146.65L136.622 869.207H111.297L157.017 747.512ZM186.081 819.067L175.204 788.643L170.785 773.856H169.425L165.006 788.643L154.128 819.067H186.081Z" fill="#0056DF"/>
<path d="M0 747.512H22.9453V796.122H74.1047V747.512H97.05V869.207H74.1047V817.877H22.9453V869.207H0V747.512Z" fill="#0056DF"/>
<path d="M642.206 979.189C642.206 982.431 643.557 985.133 646.259 987.295C649.051 989.456 652.294 990.537 655.986 990.537C661.21 990.537 665.848 988.6 669.901 984.728C674.044 980.855 676.116 976.307 676.116 971.083C672.243 968.021 666.839 966.49 659.904 966.49C654.86 966.49 650.627 967.705 647.205 970.137C643.872 972.569 642.206 975.586 642.206 979.189ZM658.283 931.094C667.469 931.094 674.72 933.571 680.033 938.525C685.347 943.388 688.004 950.098 688.004 958.654V999.453H676.116V990.267H675.575C670.442 997.832 663.597 1001.61 655.04 1001.61C647.745 1001.61 641.621 999.453 636.667 995.13C631.804 990.807 629.372 985.403 629.372 978.919C629.372 972.074 631.939 966.625 637.073 962.572C642.296 958.519 649.231 956.492 657.878 956.492C665.263 956.492 671.342 957.843 676.116 960.545V957.708C676.116 953.385 674.404 949.738 670.982 946.765C667.559 943.703 663.552 942.172 658.958 942.172C652.023 942.172 646.529 945.099 642.476 950.953L631.534 944.064C637.568 935.417 646.484 931.094 658.283 931.094Z" fill="#0056DF"/>
<path d="M609.934 910.424C609.934 912.496 609.169 914.297 607.638 915.828C606.197 917.359 604.395 918.125 602.234 918.125C600.252 918.125 598.451 917.359 596.83 915.828C595.299 914.207 594.533 912.406 594.533 910.424C594.533 908.263 595.299 906.461 596.83 905.02C598.361 903.489 600.162 902.724 602.234 902.724C604.485 902.724 606.332 903.444 607.773 904.885C609.214 906.326 609.934 908.173 609.934 910.424ZM628.307 910.424C628.307 912.496 627.542 914.297 626.011 915.828C624.57 917.359 622.768 918.125 620.607 918.125C618.625 918.125 616.824 917.359 615.203 915.828C613.672 914.207 612.906 912.406 612.906 910.424C612.906 908.263 613.672 906.461 615.203 905.02C616.734 903.489 618.535 902.724 620.607 902.724C622.859 902.724 624.705 903.444 626.146 904.885C627.587 906.326 628.307 908.173 628.307 910.424ZM617.635 933.256V999.453H605.206V933.256H617.635Z" fill="#0056DF"/>
<path d="M544.305 979.189C544.305 982.431 545.656 985.133 548.358 987.295C551.15 989.456 554.392 990.537 558.085 990.537C563.309 990.537 567.947 988.6 572 984.728C576.143 980.855 578.214 976.307 578.214 971.083C574.341 968.021 568.938 966.49 562.003 966.49C556.959 966.49 552.726 967.705 549.303 970.137C545.971 972.569 544.305 975.586 544.305 979.189ZM560.381 931.094C569.568 931.094 576.818 933.571 582.132 938.525C587.446 943.388 590.103 950.098 590.103 958.654V999.453H578.214V990.267H577.674C572.54 997.832 565.695 1001.61 557.139 1001.61C549.844 1001.61 543.719 999.453 538.766 995.13C533.902 990.807 531.471 985.403 531.471 978.919C531.471 972.074 534.038 966.625 539.171 962.572C544.395 958.519 551.33 956.492 559.976 956.492C567.361 956.492 573.441 957.843 578.214 960.545V957.708C578.214 953.385 576.503 949.738 573.081 946.765C569.658 943.703 565.65 942.172 561.057 942.172C554.122 942.172 548.628 945.099 544.575 950.953L533.632 944.064C539.667 935.417 548.583 931.094 560.381 931.094Z" fill="#0056DF"/>
<path d="M522.314 910.424C522.314 912.856 521.458 914.927 519.747 916.638C518.036 918.35 515.965 919.205 513.533 919.205C511.101 919.205 509.03 918.35 507.318 916.638C505.607 914.927 504.751 912.856 504.751 910.424C504.751 907.992 505.607 905.921 507.318 904.209C509.03 902.498 511.101 901.643 513.533 901.643C515.965 901.643 518.036 902.498 519.747 904.209C521.458 905.921 522.314 907.992 522.314 910.424ZM499.888 1029.98C497.186 1029.98 494.754 1029.53 492.593 1028.63L495.835 1017.83C497.276 1018.37 498.492 1018.64 499.483 1018.64C504.526 1018.64 507.138 1015.53 507.318 1009.31V933.255H519.747V1007.42C519.747 1022.46 513.127 1029.98 499.888 1029.98Z" fill="#0056DF"/>
<path d="M463.535 1001.61C453.808 1001.61 445.793 998.282 439.488 991.617C433.184 984.953 430.031 976.532 430.031 966.354C430.031 956.267 433.093 947.891 439.218 941.226C445.342 934.471 453.178 931.094 462.725 931.094C472.542 931.094 480.332 934.291 486.096 940.686C491.951 946.99 494.878 955.862 494.878 967.3L494.743 968.651H442.73C442.91 975.136 445.072 980.359 449.215 984.322C453.358 988.285 458.312 990.266 464.076 990.266C472.001 990.266 478.216 986.304 482.719 978.378L493.797 983.782C490.825 989.366 486.682 993.734 481.368 996.886C476.144 1000.04 470.2 1001.61 463.535 1001.61ZM443.676 958.384H481.638C481.278 953.79 479.387 950.008 475.964 947.035C472.632 943.973 468.129 942.442 462.454 942.442C457.771 942.442 453.718 943.883 450.296 946.765C446.963 949.647 444.757 953.52 443.676 958.384ZM476.505 902.724L466.778 920.016H455.97L462.995 902.724H476.505Z" fill="#0056DF"/>
<path d="M355.749 999.453V902.724H390.739C398.395 902.724 404.969 905.245 410.463 910.289C415.957 915.243 418.704 921.502 418.704 929.068C418.704 938.614 414.336 945.324 405.6 949.197V949.737C410.553 951.358 414.516 954.196 417.488 958.248C420.46 962.211 421.946 966.76 421.946 971.893C421.946 979.819 419.064 986.394 413.3 991.617C407.716 996.841 400.826 999.453 392.63 999.453H355.749ZM368.178 914.612V944.198H390.739C395.152 944.198 398.845 942.712 401.817 939.74C404.789 936.678 406.275 933.21 406.275 929.338C406.275 925.555 404.834 922.133 401.952 919.07C399.07 916.098 395.513 914.612 391.279 914.612H368.178ZM368.178 955.817V987.564H393.171C397.674 987.564 401.502 985.988 404.654 982.836C407.716 979.684 409.247 975.946 409.247 971.623C409.247 967.39 407.671 963.697 404.519 960.545C401.367 957.393 397.404 955.817 392.63 955.817H368.178Z" fill="#0056DF"/>
<defs>
<linearGradient id="paint0_linear_40_3128" x1="486.761" y1="37.3374" x2="909.404" y2="471.071" gradientUnits="userSpaceOnUse">
<stop stop-color="#F31D1D"/>
<stop offset="0.374917" stop-color="#E81366"/>
<stop offset="0.636521" stop-color="#FBB520"/>
</linearGradient>
<linearGradient id="paint1_linear_40_3128" x1="197.692" y1="388.333" x2="563.105" y2="456.513" gradientUnits="userSpaceOnUse">
<stop stop-color="#0056DF"/>
<stop offset="1" stop-color="#51B283"/>
</linearGradient>
</defs>
</svg>
